<svg version="1.1" xmlns="http://www.w3.org/2000/svg" xmlns:xlink="http://www.w3.org/1999/xlink" width="100.12018" height="56.51415" viewBox="0,0,100.12018,56.51415"><defs><linearGradient x1="240" y1="144.88889" x2="240" y2="149" gradientUnits="userSpaceOnUse" id="color-1"><stop offset="0" stop-color="#5b5b5b" stop-opacity="0"/><stop offset="1" stop-color="#5b5b5b"/></linearGradient><linearGradient x1="239.96883" y1="159.34732" x2="239.96883" y2="200.65269" gradientUnits="userSpaceOnUse" id="color-2"><stop offset="0" stop-color="#c1c1c1"/><stop offset="1" stop-color="#bdbdbd"/></linearGradient><linearGradient x1="268.65704" y1="159.34696" x2="268.65704" y2="200.65305" gradientUnits="userSpaceOnUse" id="color-3"><stop offset="0" stop-color="#c1c1c1"/><stop offset="1" stop-color="#bdbdbd"/></linearGradient><linearGradient x1="211.34295" y1="159.34696" x2="211.34295" y2="200.65305" gradientUnits="userSpaceOnUse" id="color-4"><stop offset="0" stop-color="#c1c1c1"/><stop offset="1" stop-color="#bdbdbd"/></linearGradient><linearGradient x1="239.96884" y1="159.34732" x2="239.96884" y2="200.65269" gradientUnits="userSpaceOnUse" id="color-5"><stop offset="0" stop-color="#c1c1c1"/><stop offset="1" stop-color="#bdbdbd"/></linearGradient><linearGradient x1="268.65705" y1="159.34696" x2="268.65705" y2="200.65305" gradientUnits="userSpaceOnUse" id="color-6"><stop offset="0" stop-color="#c1c1c1"/><stop offset="1" stop-color="#bdbdbd"/></linearGradient><linearGradient x1="211.34296" y1="159.34696" x2="211.34296" y2="200.65305" gradientUnits="userSpaceOnUse" id="color-7"><stop offset="0" stop-color="#c1c1c1"/><stop offset="1" stop-color="#bdbdbd"/></linearGradient><linearGradient x1="218.50422" y1="171.13182" x2="218.50422" y2="188.86818" gradientUnits="userSpaceOnUse" id="color-8"><stop offset="0" stop-color="#373737"/><stop offset="1" stop-color="#060606"/></linearGradient><linearGradient x1="218.50422" y1="167.1304" x2="218.50422" y2="175.10316" gradientUnits="userSpaceOnUse" id="color-9"><stop offset="0" stop-color="#3d3d3d"/><stop offset="1" stop-color="#2c2c2c"/></linearGradient><linearGradient x1="218.50422" y1="184.88482" x2="218.50422" y2="192.85758" gradientUnits="userSpaceOnUse" id="color-10"><stop offset="0" stop-color="#121212"/><stop offset="1" stop-color="#000000"/></linearGradient><linearGradient x1="218.4982" y1="176.01369" x2="218.4982" y2="183.98631" gradientUnits="userSpaceOnUse" id="color-11"><stop offset="0" stop-color="#2b2b2b"/><stop offset="1" stop-color="#101010"/></linearGradient><linearGradient x1="227.38143" y1="176.01362" x2="227.38143" y2="183.98638" gradientUnits="userSpaceOnUse" id="color-12"><stop offset="0" stop-color="#2b2b2b"/><stop offset="1" stop-color="#101010"/></linearGradient><linearGradient x1="209.62701" y1="176.01362" x2="209.62701" y2="183.98638" gradientUnits="userSpaceOnUse" id="color-13"><stop offset="0" stop-color="#2b2b2b"/><stop offset="1" stop-color="#101010"/></linearGradient><linearGradient x1="250.97663" y1="174.81132" x2="250.97663" y2="185.18868" gradientUnits="userSpaceOnUse" id="color-14"><stop offset="0" stop-color="#3b3b3b"/><stop offset="1" stop-color="#000000"/></linearGradient><linearGradient x1="269.1707" y1="174.81132" x2="269.1707" y2="185.18868" gradientUnits="userSpaceOnUse" id="color-15"><stop offset="0" stop-color="#3b3b3b"/><stop offset="1" stop-color="#000000"/></linearGradient><linearGradient x1="260.07366" y1="165.71428" x2="260.07366" y2="176.09165" gradientUnits="userSpaceOnUse" id="color-16"><stop offset="0" stop-color="#3b3b3b"/><stop offset="1" stop-color="#000000"/></linearGradient><linearGradient x1="260.07366" y1="183.90836" x2="260.07366" y2="194.28572" gradientUnits="userSpaceOnUse" id="color-17"><stop offset="0" stop-color="#3b3b3b"/><stop offset="1" stop-color="#000000"/></linearGradient></defs><g transform="translate(-189.93991,-144.88889)"><g data-paper-data="{&quot;isPaintingLayer&quot;:true}" fill-rule="nonzero" stroke-linecap="butt" stroke-linejoin="miter" stroke-miterlimit="10" stroke-dasharray="" stroke-dashoffset="0" style="mix-blend-mode: normal"><g stroke="none" stroke-width="0"><path d="M237.83334,162v-13.11111h4.33333v13.11111z" fill="#5b5b5b"/><path d="M237.83334,149v-4.11111h4.33333v4.11111z" fill="url(#color-1)"/></g><g stroke="#aeaeae" stroke-width="1.5"><path d="M211.24737,159.34732h57.44292v41.30537h-57.44291z" fill="url(#color-2)"/><path d="M268.65704,159.34696c11.40636,0 20.65305,9.24669 20.65305,20.65304c0,11.40635 -9.24669,20.65304 -20.65305,20.65304c-11.40636,0 -20.65305,-9.24669 -20.65305,-20.65304c0,-11.40635 9.24669,-20.65304 20.65305,-20.65304z" fill="url(#color-3)"/><path d="M211.34295,159.34696c11.40635,0 20.65305,9.24669 20.65305,20.65304c0,11.40635 -9.24669,20.65304 -20.65305,20.65304c-11.40635,0 -20.65304,-9.24669 -20.65304,-20.65304c0,-11.40635 9.24669,-20.65304 20.65304,-20.65304z" fill="url(#color-4)"/></g><g stroke="none" stroke-width="0"><path d="M211.24738,159.34732h57.44292v41.30537h-57.44291z" fill="url(#color-5)"/><path d="M268.65705,159.34696c11.40636,0 20.65305,9.24669 20.65305,20.65304c0,11.40635 -9.24669,20.65304 -20.65305,20.65304c-11.40636,0 -20.65305,-9.24669 -20.65305,-20.65304c0,-11.40635 9.24669,-20.65304 20.65305,-20.65304z" fill="url(#color-6)"/><path d="M211.34296,159.34696c11.40635,0 20.65305,9.24669 20.65305,20.65304c0,11.40635 -9.24669,20.65304 -20.65305,20.65304c-11.40635,0 -20.65304,-9.24669 -20.65304,-20.65304c0,-11.40635 9.24669,-20.65304 20.65304,-20.65304z" fill="url(#color-7)"/></g><g fill="none" stroke="#a6a6a6" stroke-width="1.5"><g><path d="M214.51791,188.06818v-16.13636h7.97262v16.13636z"/><path d="M214.51784,171.11678c0,-2.20162 1.78476,-3.98638 3.98638,-3.98638c2.20162,0 3.98638,1.78476 3.98638,3.98638c0,2.20162 -1.78477,3.98638 -3.98638,3.98638c-2.20162,0 -3.98638,-1.78476 -3.98638,-3.98638z"/><path d="M214.51784,188.8712c0,-2.20162 1.78476,-3.98638 3.98638,-3.98638c2.20162,0 3.98638,1.78476 3.98638,3.98638c0,2.20162 -1.78477,3.98638 -3.98638,3.98638c-2.20162,0 -3.98638,-1.78476 -3.98638,-3.98638z"/><path d="M210.43002,176.01369h16.13636v7.97262h-16.13636z"/><path d="M227.38143,176.01362c2.20162,0 3.98638,1.78476 3.98638,3.98638c0,2.20162 -1.78476,3.98638 -3.98638,3.98638c-2.20162,0 -3.98638,-1.78476 -3.98638,-3.98638c0,-2.20162 1.78476,-3.98638 3.98638,-3.98638z"/><path d="M209.62701,176.01362c2.20162,0 3.98638,1.78476 3.98638,3.98638c0,2.20162 -1.78476,3.98638 -3.98638,3.98638c-2.20162,0 -3.98638,-1.78476 -3.98638,-3.98638c0,-2.20162 1.78476,-3.98638 3.98638,-3.98638z"/></g><g><path d="M245.78795,180c0,-2.86562 2.32306,-5.18868 5.18868,-5.18868c2.86562,0 5.18868,2.32306 5.18868,5.18868c0,2.86562 -2.32305,5.18868 -5.18868,5.18868c-2.86562,0 -5.18868,-2.32306 -5.18868,-5.18868z"/><path d="M263.98202,180c0,-2.86562 2.32306,-5.18868 5.18868,-5.18868c2.86563,0 5.18868,2.32306 5.18868,5.18868c0,2.86562 -2.32305,5.18868 -5.18868,5.18868c-2.86563,0 -5.18868,-2.32306 -5.18868,-5.18868z"/><path d="M254.88498,170.90297c0,-2.86562 2.32305,-5.18868 5.18868,-5.18868c2.86563,0 5.18868,2.32306 5.18868,5.18868c0,2.86562 -2.32305,5.18868 -5.18868,5.18868c-2.86563,0 -5.18868,-2.32306 -5.18868,-5.18868z"/><path d="M254.88498,189.09704c0,-2.86562 2.32305,-5.18868 5.18868,-5.18868c2.86563,0 5.18868,2.32306 5.18868,5.18868c0,2.86562 -2.32305,5.18868 -5.18868,5.18868c-2.86563,0 -5.18868,-2.32306 -5.18868,-5.18868z"/></g></g><g stroke="none" stroke-width="0"><path d="M214.51791,188.86818v-17.73636h7.97262v17.73636z" fill="url(#color-8)"/><path d="M214.51784,171.11678c0,-2.20162 1.78476,-3.98638 3.98638,-3.98638c2.20162,0 3.98638,1.78476 3.98638,3.98638c0,2.20162 -1.78477,3.98638 -3.98638,3.98638c-2.20162,0 -3.98638,-1.78476 -3.98638,-3.98638z" fill="url(#color-9)"/><path d="M214.51784,188.8712c0,-2.20162 1.78476,-3.98638 3.98638,-3.98638c2.20162,0 3.98638,1.78476 3.98638,3.98638c0,2.20162 -1.78477,3.98638 -3.98638,3.98638c-2.20162,0 -3.98638,-1.78476 -3.98638,-3.98638z" fill="url(#color-10)"/><path d="M209.63002,176.01369h17.73636v7.97262h-17.73636z" fill="url(#color-11)"/><path d="M227.38143,176.01362c2.20162,0 3.98638,1.78476 3.98638,3.98638c0,2.20162 -1.78476,3.98638 -3.98638,3.98638c-2.20162,0 -3.98638,-1.78476 -3.98638,-3.98638c0,-2.20162 1.78476,-3.98638 3.98638,-3.98638z" fill="url(#color-12)"/><path d="M209.62701,176.01362c2.20162,0 3.98638,1.78476 3.98638,3.98638c0,2.20162 -1.78476,3.98638 -3.98638,3.98638c-2.20162,0 -3.98638,-1.78476 -3.98638,-3.98638c0,-2.20162 1.78476,-3.98638 3.98638,-3.98638z" fill="url(#color-13)"/></g><g stroke="none" stroke-width="0"><path d="M245.78795,180c0,-2.86562 2.32306,-5.18868 5.18868,-5.18868c2.86562,0 5.18868,2.32306 5.18868,5.18868c0,2.86562 -2.32305,5.18868 -5.18868,5.18868c-2.86562,0 -5.18868,-2.32306 -5.18868,-5.18868z" fill="url(#color-14)"/><path d="M263.98202,180c0,-2.86562 2.32306,-5.18868 5.18868,-5.18868c2.86563,0 5.18868,2.32306 5.18868,5.18868c0,2.86562 -2.32305,5.18868 -5.18868,5.18868c-2.86563,0 -5.18868,-2.32306 -5.18868,-5.18868z" fill="url(#color-15)"/><path d="M254.88498,170.90297c0,-2.86562 2.32305,-5.18868 5.18868,-5.18868c2.86563,0 5.18868,2.32306 5.18868,5.18868c0,2.86562 -2.32305,5.18868 -5.18868,5.18868c-2.86563,0 -5.18868,-2.32306 -5.18868,-5.18868z" fill="url(#color-16)"/><path d="M254.88498,189.09704c0,-2.86562 2.32305,-5.18868 5.18868,-5.18868c2.86563,0 5.18868,2.32306 5.18868,5.18868c0,2.86562 -2.32305,5.18868 -5.18868,5.18868c-2.86563,0 -5.18868,-2.32306 -5.18868,-5.18868z" fill="url(#color-17)"/></g></g></g></svg>