<svg version="1.1" xmlns="http://www.w3.org/2000/svg" xmlns:xlink="http://www.w3.org/1999/xlink" width="100.12018" height="56.51415" viewBox="0,0,100.12018,56.51415"><defs><linearGradient x1="240" y1="144.88889" x2="240" y2="149" gradientUnits="userSpaceOnUse" id="color-1"><stop offset="0" stop-color="#000000" stop-opacity="0"/><stop offset="1" stop-color="#000000"/></linearGradient></defs><g transform="translate(-189.93991,-144.88889)"><g data-paper-data="{&quot;isPaintingLayer&quot;:true}" fill-rule="nonzero" stroke-linecap="butt" stroke-linejoin="miter" stroke-miterlimit="10" stroke-dasharray="" stroke-dashoffset="0" style="mix-blend-mode: normal"><g stroke="none" stroke-width="0"><path d="M237.83334,162v-13.11111h4.33333v13.11111z" fill="#000000"/><path d="M237.83334,149v-4.11111h4.33333v4.11111z" fill="url(#color-1)"/></g><g fill="#ffffff" stroke="#000000" stroke-width="1.5"><path d="M211.24737,159.34732h57.44292v41.30537h-57.44291z"/><path d="M268.65704,159.34696c11.40636,0 20.65305,9.24669 20.65305,20.65304c0,11.40635 -9.24669,20.65304 -20.65305,20.65304c-11.40636,0 -20.65305,-9.24669 -20.65305,-20.65304c0,-11.40635 9.24669,-20.65304 20.65305,-20.65304z"/><path d="M211.34295,159.34696c11.40635,0 20.65305,9.24669 20.65305,20.65304c0,11.40635 -9.24669,20.65304 -20.65305,20.65304c-11.40635,0 -20.65304,-9.24669 -20.65304,-20.65304c0,-11.40635 9.24669,-20.65304 20.65304,-20.65304z"/></g><g fill="#ffffff" stroke="none" stroke-width="0"><path d="M211.24738,159.34732h57.44292v41.30537h-57.44291z"/><path d="M268.65705,159.34696c11.40636,0 20.65305,9.24669 20.65305,20.65304c0,11.40635 -9.24669,20.65304 -20.65305,20.65304c-11.40636,0 -20.65305,-9.24669 -20.65305,-20.65304c0,-11.40635 9.24669,-20.65304 20.65305,-20.65304z"/><path d="M211.34296,159.34696c11.40635,0 20.65305,9.24669 20.65305,20.65304c0,11.40635 -9.24669,20.65304 -20.65305,20.65304c-11.40635,0 -20.65304,-9.24669 -20.65304,-20.65304c0,-11.40635 9.24669,-20.65304 20.65304,-20.65304z"/></g><g fill="none" stroke="#000000" stroke-width="1.5"><g><path d="M214.51791,188.06818v-16.13636h7.97262v16.13636z"/><path d="M214.51784,171.11678c0,-2.20162 1.78476,-3.98638 3.98638,-3.98638c2.20162,0 3.98638,1.78476 3.98638,3.98638c0,2.20162 -1.78477,3.98638 -3.98638,3.98638c-2.20162,0 -3.98638,-1.78476 -3.98638,-3.98638z"/><path d="M214.51784,188.8712c0,-2.20162 1.78476,-3.98638 3.98638,-3.98638c2.20162,0 3.98638,1.78476 3.98638,3.98638c0,2.20162 -1.78477,3.98638 -3.98638,3.98638c-2.20162,0 -3.98638,-1.78476 -3.98638,-3.98638z"/><path d="M210.43002,176.01369h16.13636v7.97262h-16.13636z"/><path d="M227.38143,176.01362c2.20162,0 3.98638,1.78476 3.98638,3.98638c0,2.20162 -1.78476,3.98638 -3.98638,3.98638c-2.20162,0 -3.98638,-1.78476 -3.98638,-3.98638c0,-2.20162 1.78476,-3.98638 3.98638,-3.98638z"/><path d="M209.62701,176.01362c2.20162,0 3.98638,1.78476 3.98638,3.98638c0,2.20162 -1.78476,3.98638 -3.98638,3.98638c-2.20162,0 -3.98638,-1.78476 -3.98638,-3.98638c0,-2.20162 1.78476,-3.98638 3.98638,-3.98638z"/></g><g><path d="M245.78795,180c0,-2.86562 2.32306,-5.18868 5.18868,-5.18868c2.86562,0 5.18868,2.32306 5.18868,5.18868c0,2.86562 -2.32305,5.18868 -5.18868,5.18868c-2.86562,0 -5.18868,-2.32306 -5.18868,-5.18868z"/><path d="M263.98202,180c0,-2.86562 2.32306,-5.18868 5.18868,-5.18868c2.86563,0 5.18868,2.32306 5.18868,5.18868c0,2.86562 -2.32305,5.18868 -5.18868,5.18868c-2.86563,0 -5.18868,-2.32306 -5.18868,-5.18868z"/><path d="M254.88498,170.90297c0,-2.86562 2.32305,-5.18868 5.18868,-5.18868c2.86563,0 5.18868,2.32306 5.18868,5.18868c0,2.86562 -2.32305,5.18868 -5.18868,5.18868c-2.86563,0 -5.18868,-2.32306 -5.18868,-5.18868z"/><path d="M254.88498,189.09704c0,-2.86562 2.32305,-5.18868 5.18868,-5.18868c2.86563,0 5.18868,2.32306 5.18868,5.18868c0,2.86562 -2.32305,5.18868 -5.18868,5.18868c-2.86563,0 -5.18868,-2.32306 -5.18868,-5.18868z"/></g></g><g fill="#ffffff" stroke="none" stroke-width="0"><path d="M214.51791,188.86818v-17.73636h7.97262v17.73636z"/><path d="M214.51784,171.11678c0,-2.20162 1.78476,-3.98638 3.98638,-3.98638c2.20162,0 3.98638,1.78476 3.98638,3.98638c0,2.20162 -1.78477,3.98638 -3.98638,3.98638c-2.20162,0 -3.98638,-1.78476 -3.98638,-3.98638z"/><path d="M214.51784,188.8712c0,-2.20162 1.78476,-3.98638 3.98638,-3.98638c2.20162,0 3.98638,1.78476 3.98638,3.98638c0,2.20162 -1.78477,3.98638 -3.98638,3.98638c-2.20162,0 -3.98638,-1.78476 -3.98638,-3.98638z"/><path d="M209.63002,176.01369h17.73636v7.97262h-17.73636z"/><path d="M227.38143,176.01362c2.20162,0 3.98638,1.78476 3.98638,3.98638c0,2.20162 -1.78476,3.98638 -3.98638,3.98638c-2.20162,0 -3.98638,-1.78476 -3.98638,-3.98638c0,-2.20162 1.78476,-3.98638 3.98638,-3.98638z"/><path d="M209.62701,176.01362c2.20162,0 3.98638,1.78476 3.98638,3.98638c0,2.20162 -1.78476,3.98638 -3.98638,3.98638c-2.20162,0 -3.98638,-1.78476 -3.98638,-3.98638c0,-2.20162 1.78476,-3.98638 3.98638,-3.98638z"/></g><g fill="#ffffff" stroke="none" stroke-width="0"><path d="M245.78795,180c0,-2.86562 2.32306,-5.18868 5.18868,-5.18868c2.86562,0 5.18868,2.32306 5.18868,5.18868c0,2.86562 -2.32305,5.18868 -5.18868,5.18868c-2.86562,0 -5.18868,-2.32306 -5.18868,-5.18868z"/><path d="M263.98202,180c0,-2.86562 2.32306,-5.18868 5.18868,-5.18868c2.86563,0 5.18868,2.32306 5.18868,5.18868c0,2.86562 -2.32305,5.18868 -5.18868,5.18868c-2.86563,0 -5.18868,-2.32306 -5.18868,-5.18868z"/><path d="M254.88498,170.90297c0,-2.86562 2.32305,-5.18868 5.18868,-5.18868c2.86563,0 5.18868,2.32306 5.18868,5.18868c0,2.86562 -2.32305,5.18868 -5.18868,5.18868c-2.86563,0 -5.18868,-2.32306 -5.18868,-5.18868z"/><path d="M254.88498,189.09704c0,-2.86562 2.32305,-5.18868 5.18868,-5.18868c2.86563,0 5.18868,2.32306 5.18868,5.18868c0,2.86562 -2.32305,5.18868 -5.18868,5.18868c-2.86563,0 -5.18868,-2.32306 -5.18868,-5.18868z"/></g></g></g></svg>